<svg width="1200" height="1200" viewBox="0 0 1200 1200" fill="none" xmlns="http://www.w3.org/2000/svg">
<g clip-path="url(#clip0_206_159)">
<rect width="1200" height="1200" fill="#EDEDED"/>
<path d="M751.322 850V350.32H551.45C515.825 350.32 487.024 357.491 465.047 371.834C443.071 385.945 426.993 403.758 416.814 425.272C406.636 446.786 401.546 468.531 401.546 490.508C401.546 518.499 407.908 541.748 420.631 560.255C433.123 578.762 450.358 591.138 472.334 597.384V580.034C441.104 586.511 417.74 600.97 402.24 623.409C386.51 645.848 378.644 670.948 378.644 698.708C378.644 728.55 384.196 754.806 395.3 777.477C406.173 800.148 422.829 817.96 445.268 830.915C467.708 843.638 495.93 850 529.936 850H751.322ZM655.55 761.168H539.652C526.929 761.168 515.594 758.508 505.646 753.187C495.699 747.635 487.949 740.001 482.397 730.285C476.614 720.338 473.722 708.655 473.722 695.238C473.722 683.44 476.151 672.914 481.009 663.661C485.867 654.408 493.27 647.121 503.217 641.8C512.933 636.248 525.078 633.472 539.652 633.472H655.55V761.168ZM655.55 545.334H552.838C542.197 545.334 532.712 543.483 524.384 539.782C516.056 536.081 509.463 530.413 504.605 522.779C499.747 514.914 497.318 504.851 497.318 492.59C497.318 477.322 502.061 464.483 511.545 454.073C521.03 443.663 534.794 438.458 552.838 438.458H655.55V545.334Z" fill="#121212"/>
<path d="M728 761H1232V850H728V761Z" fill="#121212"/>
</g>
<defs>
<clipPath id="clip0_206_159">
<rect width="1200" height="1200" fill="white"/>
</clipPath>
</defs>
</svg>
