<svg width="1200" height="1200" viewBox="0 0 1200 1200" fill="none" xmlns="http://www.w3.org/2000/svg">
<rect width="1200" height="1200" fill="#232323"/>
<path d="M696.42 850V350.32H496.548C460.923 350.32 432.122 357.491 410.145 371.834C388.168 385.945 372.091 403.758 361.912 425.272C351.733 446.786 346.644 468.531 346.644 490.508C346.644 518.499 353.006 541.748 365.729 560.255C378.221 578.762 395.455 591.138 417.432 597.384V580.034C386.202 586.511 362.837 600.97 347.338 623.409C331.607 645.848 323.742 670.948 323.742 698.708C323.742 728.55 329.294 754.806 340.398 777.477C351.271 800.148 367.927 817.96 390.366 830.915C412.805 843.638 441.028 850 475.034 850H696.42ZM600.648 761.168H484.75C472.027 761.168 460.691 758.508 450.744 753.187C440.797 747.635 433.047 740.001 427.495 730.285C421.712 720.338 418.82 708.655 418.82 695.238C418.82 683.44 421.249 672.914 426.107 663.661C430.965 654.408 438.368 647.121 448.315 641.8C458.031 636.248 470.176 633.472 484.75 633.472H600.648V761.168ZM600.648 545.334H497.936C487.295 545.334 477.81 543.483 469.482 539.782C461.154 536.081 454.561 530.413 449.703 522.779C444.845 514.914 442.416 504.851 442.416 492.59C442.416 477.322 447.158 464.483 456.643 454.073C466.128 443.663 479.892 438.458 497.936 438.458H600.648V545.334Z" fill="#EDEDED"/>
<rect x="696" y="761" width="504" height="89" fill="#EDEDED"/>
</svg>
