<?xml version="1.0" encoding="UTF-8"?>
<!-- Generated by Pixelmator Pro 3.4.3 -->
<svg width="512" height="512" viewBox="0 0 512 512" xmlns="http://www.w3.org/2000/svg">
    <path id="Path" fill="#555555" stroke="none" d="M 59.733334 0 L 452.266663 0 C 485.25647 0 512 26.74353 512 59.733337 L 512 452.266663 C 512 485.25647 485.25647 512 452.266663 512 L 59.733334 512 C 26.743525 512 -0 485.25647 -0 452.266663 L -0 59.733337 C -0 26.74353 26.743525 0 59.733334 0 Z"/>
    <path id="path1" fill="#eeeeee" stroke="none" d="M 257.706665 385.706665 L 257.706665 139.946655 L 216.576004 139.946655 L 216.576004 347.135986 L 108.031998 347.135986 L 108.031998 385.706665 L 257.706665 385.706665 Z"/>
    <path id="path2" fill="#eeeeee" stroke="none" d="M 216.746674 385.706665 L 216.746674 139.946655 L 314.197357 139.946655 C 330.808319 139.946655 344.405334 143.303192 354.986664 150.015991 C 365.682343 156.615143 373.589325 165.091522 378.70932 175.445343 C 383.943665 185.799683 386.559998 196.493652 386.559998 207.53067 C 386.559998 221.069672 383.317352 232.562347 376.832001 242.005341 C 370.461029 251.448303 361.757019 257.821014 350.720001 261.119995 L 350.720001 252.58667 C 366.194336 256.114349 377.912323 263.453003 385.87735 274.602661 C 393.954987 285.752319 397.994659 298.439697 397.994659 312.661316 C 397.994659 327.224304 395.207672 339.968018 389.632019 350.890686 C 384.056335 361.813354 375.751678 370.34668 364.714661 376.490662 C 353.791992 382.634644 340.253021 385.706665 324.095978 385.706665 L 216.746674 385.706665 Z M 258.389313 346.965332 L 318.975983 346.965332 C 326.144012 346.965332 332.573029 345.543671 338.261322 342.698669 C 343.949677 339.741028 348.386993 335.64502 351.573334 330.410675 C 354.872314 325.06366 356.522644 318.749023 356.522644 311.466675 C 356.522644 304.866974 355.101013 298.951691 352.255981 293.717346 C 349.41098 288.483002 345.258667 284.330688 339.797333 281.258667 C 334.335999 278.072327 327.794342 276.47998 320.170685 276.47998 L 258.389313 276.47998 L 258.389313 346.965332 Z M 258.389313 238.079987 L 313.685333 238.079987 C 319.602356 238.079987 324.893036 236.94165 329.557343 234.666656 C 334.221649 232.391693 337.920013 229.034668 340.650665 224.597351 C 343.381317 220.160004 344.746674 214.698669 344.746674 208.213348 C 344.746674 199.679993 342.015991 192.568329 336.554657 186.880005 C 331.093323 181.191681 323.469666 178.34668 313.685333 178.34668 L 258.389313 178.34668 L 258.389313 238.079987 Z"/>
    <path id="path3" fill="#eeeeee" stroke="none" d="M 107.519997 344.746674 C 96.209236 344.746674 87.040001 353.916595 87.040001 365.226685 C 87.040001 376.536743 96.209236 385.706665 107.519997 385.706665 L 107.519997 344.746674 Z M 107.519997 385.706665 L 242.346664 385.706665 L 242.346664 344.746674 L 107.519997 344.746674 L 107.519997 385.706665 Z"/>
</svg>
