<?xml version="1.0" encoding="UTF-8"?>
<!-- Generated by Pixelmator Pro 3.3.13 -->
<svg width="512" height="512" viewBox="0 0 512 512" xmlns="http://www.w3.org/2000/svg">
    <path id="Path" fill="#9e379f" stroke="none" d="M 128.682663 472.746674 L 128.682663 79.53067 L 285.969055 79.53067 C 314.004486 79.53067 336.669006 85.174103 353.962646 96.460815 C 371.256317 107.565582 383.909546 121.582916 391.918945 138.513062 C 399.928314 155.443207 403.933868 172.555939 403.933868 189.849579 C 403.933868 211.877563 398.928192 230.173035 388.915222 244.735992 C 379.084778 259.298981 365.521942 269.03894 348.228241 273.954163 L 348.228241 260.300812 C 372.80426 265.398621 391.190186 276.775269 403.387726 294.434143 C 415.766205 312.093018 421.956268 331.844269 421.956268 353.689606 C 421.956268 377.17334 417.587189 397.835938 408.84906 415.67572 C 400.293549 433.515503 387.18634 447.534058 369.527466 457.728027 C 351.868591 467.740997 329.659729 472.746674 302.8992 472.746674 L 128.682663 472.746674 Z M 204.049057 402.841583 L 295.253326 402.841583 C 305.266357 402.841583 314.185394 400.747528 322.013855 396.561066 C 329.842346 392.192017 335.940247 386.18454 340.309326 378.538666 C 344.861023 370.710205 347.135986 361.518066 347.135986 350.958923 C 347.135986 341.674683 345.224518 333.392212 341.401581 326.109863 C 337.578674 318.827515 331.753815 313.09314 323.925323 308.906677 C 316.27948 304.537598 306.722137 302.353088 295.253326 302.353088 L 204.049057 302.353088 L 204.049057 402.841583 Z M 204.049057 232.994141 L 284.876801 232.994141 C 293.251404 232.994141 300.714661 231.538361 307.26825 228.625092 C 313.821869 225.711792 319.010132 221.252258 322.833069 215.244781 C 326.655975 209.054718 328.567474 201.135773 328.567474 191.488007 C 328.567474 179.473083 324.834961 169.369598 317.371735 161.177612 C 309.908478 152.985596 299.076263 148.889587 284.876801 148.889587 L 204.049057 148.889587 L 204.049057 232.994141 Z"/>
    <path id="path1" fill="#e86af0" stroke="none" d="M 103.082672 447.146667 L 103.082672 53.930664 L 260.369049 53.930664 C 288.40448 53.930664 311.069 59.574127 328.362671 70.860779 C 345.656342 81.965576 358.30957 95.982941 366.318939 112.913086 C 374.328308 129.843201 378.333862 146.955414 378.333862 164.249573 C 378.333862 186.277557 373.328217 204.573029 363.315216 219.135986 C 353.484802 233.698975 339.921936 243.438934 322.628265 248.354126 L 322.628265 234.700806 C 347.204285 239.798615 365.590179 251.175262 377.78772 268.834137 C 390.166199 286.493042 396.356262 306.244263 396.356262 328.0896 C 396.356262 351.573334 391.987183 372.235931 383.249054 390.075745 C 374.693542 407.915527 361.586365 421.934082 343.92746 432.127991 C 326.268585 442.140991 304.059753 447.146667 277.299194 447.146667 L 103.082672 447.146667 Z M 178.449066 377.241577 L 269.65332 377.241577 C 279.666351 377.241577 288.585388 375.147522 296.413849 370.96106 C 304.24234 366.59201 310.340271 360.584534 314.70932 352.93866 C 319.261017 345.110168 321.53598 335.918091 321.53598 325.358948 C 321.53598 316.074646 319.624542 307.792236 315.801575 300.509888 C 311.978668 293.227539 306.153809 287.493103 298.325348 283.306671 C 290.679474 278.937622 281.122131 276.753052 269.65332 276.753052 L 178.449066 276.753052 L 178.449066 377.241577 Z M 178.449066 207.394104 L 259.276794 207.394104 C 267.651398 207.394104 275.114655 205.938324 281.668243 203.025055 C 288.221863 200.111786 293.410126 195.652252 297.233063 189.644806 C 301.056 183.454712 302.967468 175.535767 302.967468 165.888 C 302.967468 153.873077 299.234985 143.769592 291.771759 135.577606 C 284.308502 127.38559 273.476288 123.289581 259.276794 123.289581 L 178.449066 123.289581 L 178.449066 207.394104 Z"/>
</svg>
