<svg width="512" height="512" viewBox="0 0 512 512" fill="none" xmlns="http://www.w3.org/2000/svg">
<rect width="512" height="512" fill="#232323"/>
<path d="M298 364V148H211.6C196.2 148 183.75 151.1 174.25 157.3C164.75 163.4 157.8 171.1 153.4 180.4C149 189.7 146.8 199.1 146.8 208.6C146.8 220.7 149.55 230.75 155.05 238.75C160.45 246.75 167.9 252.1 177.4 254.8V247.3C163.9 250.1 153.8 256.35 147.1 266.05C140.3 275.75 136.9 286.6 136.9 298.6C136.9 311.5 139.3 322.85 144.1 332.65C148.8 342.45 156 350.15 165.7 355.75C175.4 361.25 187.6 364 202.3 364H298ZM256.6 325.6H206.5C201 325.6 196.1 324.45 191.8 322.15C187.5 319.75 184.15 316.45 181.75 312.25C179.25 307.95 178 302.9 178 297.1C178 292 179.05 287.45 181.15 283.45C183.25 279.45 186.45 276.3 190.75 274C194.95 271.6 200.2 270.4 206.5 270.4H256.6V325.6ZM256.6 232.3H212.2C207.6 232.3 203.5 231.5 199.9 229.9C196.3 228.3 193.45 225.85 191.35 222.55C189.25 219.15 188.2 214.8 188.2 209.5C188.2 202.9 190.25 197.35 194.35 192.85C198.45 188.35 204.4 186.1 212.2 186.1H256.6V232.3Z" fill="#EDEDED"/>
<rect x="298" y="326" width="214" height="38" fill="#EDEDED"/>
</svg>
