<svg width="512" height="512" viewBox="0 0 512 512" fill="none" xmlns="http://www.w3.org/2000/svg">
<rect width="512" height="512" rx="35" fill="#222222"/>
<path d="M293.661 379V132H198.379C181.396 132 167.666 135.545 157.189 142.635C146.713 149.61 139.048 158.415 134.196 169.05C129.344 179.685 126.918 190.434 126.918 201.297C126.918 215.134 129.95 226.626 136.016 235.774C141.971 244.922 150.187 251.04 160.663 254.128V245.551C145.776 248.753 134.637 255.9 127.249 266.992C119.75 278.084 116 290.492 116 304.214C116 318.965 118.647 331.944 123.94 343.151C129.123 354.357 137.063 363.162 147.761 369.566C158.458 375.855 171.912 379 188.123 379H293.661ZM248.005 335.089H192.755C186.689 335.089 181.286 333.774 176.544 331.144C171.802 328.399 168.107 324.626 165.46 319.823C162.703 314.906 161.325 309.131 161.325 302.499C161.325 296.667 162.483 291.464 164.799 286.89C167.115 282.316 170.644 278.713 175.386 276.083C180.017 273.339 185.807 271.967 192.755 271.967H248.005V335.089ZM248.005 228.399H199.041C193.968 228.399 189.446 227.484 185.476 225.654C181.506 223.825 178.363 221.023 176.047 217.249C173.731 213.361 172.573 208.387 172.573 202.326C172.573 194.779 174.834 188.433 179.356 183.287C183.877 178.141 190.439 175.568 199.041 175.568H248.005V228.399Z" fill="#EEEEEE"/>
<path d="M248.446 379V132H293.44V335.432H396V379H248.446Z" fill="#EEEEEE"/>
</svg>
