<svg width="512" height="512" viewBox="0 0 512 512" fill="none" xmlns="http://www.w3.org/2000/svg">
<rect width="512" height="512" rx="35" fill="#222222"/>
<path d="M293.661 382V132H198.379C181.396 132 167.666 135.588 157.189 142.764C146.713 149.824 139.048 158.736 134.196 169.5C129.344 180.264 126.918 191.144 126.918 202.139C126.918 216.144 129.95 227.775 136.016 237.035C141.971 246.294 150.187 252.486 160.663 255.611V246.931C145.776 250.171 134.637 257.405 127.249 268.632C119.75 279.859 116 292.417 116 306.306C116 321.236 118.647 334.373 123.94 345.715C129.123 357.058 137.063 365.97 147.761 372.451C158.458 378.817 171.912 382 188.123 382H293.661ZM248.005 337.556H192.755C186.689 337.556 181.286 336.225 176.544 333.562C171.802 330.785 168.107 326.965 165.46 322.104C162.703 317.127 161.325 311.282 161.325 304.569C161.325 298.667 162.483 293.4 164.799 288.771C167.115 284.141 170.644 280.495 175.386 277.833C180.017 275.056 185.807 273.667 192.755 273.667H248.005V337.556ZM248.005 229.569H199.041C193.968 229.569 189.446 228.644 185.476 226.792C181.506 224.94 178.363 222.104 176.047 218.285C173.731 214.35 172.573 209.315 172.573 203.181C172.573 195.542 174.834 189.118 179.356 183.91C183.877 178.701 190.439 176.097 199.041 176.097H248.005V229.569Z" fill="#EEEEEE"/>
<path d="M248.446 382V132H293.44V337.903H396V382H248.446Z" fill="#EEEEEE"/>
<rect x="272" y="338" width="240" height="44" fill="#EEEEEE"/>
</svg>
