<?xml version="1.0" encoding="UTF-8"?>
<!-- Generated by Pixelmator Pro 3.4.3 -->
<svg width="512" height="512" viewBox="0 0 512 512" xmlns="http://www.w3.org/2000/svg">
    <path id="Path" fill="#111111" stroke="none" d="M 17.066668 0 L 494.933319 0 C 504.359009 0 512 7.640991 512 17.066681 L 512 494.933319 C 512 504.359009 504.359009 512 494.933319 512 L 17.066668 512 C 7.641006 512 -0 504.359009 -0 494.933319 L -0 17.066681 C -0 7.640991 7.641006 0 17.066668 0 Z"/>
    <path id="path1" fill="#eeeeee" stroke="none" d="M 263.509308 431.786682 L 263.509308 100.010681 L 200.84053 100.010681 L 200.84053 373.265076 L 57.992531 373.265076 L 57.992531 431.786682 L 263.509308 431.786682 Z"/>
    <path id="path2" fill="#eeeeee" stroke="none" d="M 201.216003 431.786682 L 201.216003 100.010681 L 333.926392 100.010681 C 357.580811 100.010681 376.70401 104.772278 391.29599 114.295471 C 405.888 123.665039 416.563202 135.492279 423.321594 149.777069 C 430.079987 164.06189 433.459198 178.500275 433.459198 193.092255 C 433.459198 211.677856 429.235199 227.114655 420.787201 239.402649 C 412.492798 251.690674 401.049622 259.908264 386.457611 264.055481 L 386.457611 252.535461 C 407.193604 256.836273 422.707184 266.436279 432.998413 281.335449 C 443.443176 296.23468 448.665619 312.900269 448.665619 331.332275 C 448.665619 351.146667 444.979218 368.580261 437.606415 383.633057 C 430.387177 398.685852 419.328003 410.513062 404.428802 419.114655 C 389.529602 427.562653 370.790405 431.786682 348.211212 431.786682 L 201.216003 431.786682 Z M 264.806396 372.80426 L 341.76001 372.80426 C 350.208008 372.80426 357.734406 371.037842 364.339203 367.505066 C 370.944 363.818665 376.0896 358.749878 379.776001 352.298676 C 383.615997 345.693848 385.53598 337.937073 385.53598 329.028259 C 385.53598 321.194641 383.923218 314.205872 380.697601 308.06189 C 377.472015 301.917847 372.556793 297.079468 365.951996 293.546661 C 359.500793 289.86026 351.436798 288.017059 341.76001 288.017059 L 264.806396 288.017059 L 264.806396 372.80426 Z M 264.806396 229.495483 L 333.004791 229.495483 C 340.070404 229.495483 346.367981 228.266663 351.897614 225.809052 C 357.427185 223.351471 361.804779 219.588257 365.030396 214.51947 C 368.255981 209.297089 369.868805 202.615479 369.868805 194.47467 C 369.868805 184.337097 366.720001 175.812256 360.422394 168.900269 C 354.124786 161.988281 344.985596 158.532257 333.004791 158.532257 L 264.806396 158.532257 L 264.806396 229.495483 Z"/>
</svg>
