<?xml version="1.0" encoding="UTF-8"?>
<!-- Generated by Pixelmator Pro 3.4.3 -->
<svg width="512" height="512" viewBox="0 0 512 512" xmlns="http://www.w3.org/2000/svg">
    <path id="Path" fill="#444444" stroke="none" d="M 42.666668 0 L 469.333344 0 C 492.897491 0 512 19.102509 512 42.666656 L 512 469.333344 C 512 492.897491 492.897491 512 469.333344 512 L 42.666668 512 C 19.102518 512 -0 492.897491 -0 469.333344 L -0 42.666656 C -0 19.102509 19.102518 0 42.666668 0 Z"/>
    <path id="path1" fill="#eeeeee" stroke="none" d="M 257.024017 406.186676 L 257.024017 123.562653 L 209.72374 123.562653 L 209.72374 361.830383 L 84.898132 361.830383 L 84.898132 406.186676 L 257.024017 406.186676 Z"/>
    <path id="path2" fill="#eeeeee" stroke="none" d="M 210.090668 406.186676 L 210.090668 123.562653 L 322.158936 123.562653 C 341.261627 123.562653 356.898132 127.422638 369.066681 135.142395 C 381.366608 142.731445 390.459747 152.479218 396.347748 164.386139 C 402.367126 176.293549 405.375977 188.591766 405.375977 201.284271 C 405.375977 216.854187 401.646942 230.070618 394.188812 240.930145 C 386.862091 251.789673 376.852478 259.118073 364.160004 262.911987 L 364.160004 253.098663 C 381.955414 257.155396 395.431244 265.594849 404.590942 278.417053 C 413.88031 291.239258 418.525848 305.829559 418.525848 322.184509 C 418.525848 338.932068 415.32077 353.587189 408.908813 366.148254 C 402.496857 378.70932 392.94635 388.522644 380.253845 395.588257 C 367.69281 402.65387 352.122894 406.186676 333.542389 406.186676 L 210.090668 406.186676 Z M 257.979736 361.634155 L 327.654388 361.634155 C 335.897614 361.634155 343.290894 359.999146 349.83252 356.727478 C 356.374207 353.32605 361.477112 348.615662 365.141327 342.596283 C 368.935272 336.447144 370.833069 329.185303 370.833069 320.810669 C 370.833069 313.22113 369.198059 306.418365 365.926392 300.398926 C 362.654724 294.379517 357.879486 289.604248 351.598938 286.071472 C 345.31842 282.407288 337.79541 280.575989 329.028259 280.575989 L 257.979736 280.575989 L 257.979736 361.634155 Z M 257.979736 236.415985 L 321.570129 236.415985 C 328.374603 236.415985 334.458893 235.106964 339.822937 232.490692 C 345.186981 229.874359 349.440002 226.013855 352.580261 220.91095 C 355.72052 215.807983 357.29068 209.527435 357.29068 202.069336 C 357.29068 192.255981 354.150391 184.077667 347.869873 177.53598 C 341.589325 170.994354 332.822174 167.722656 321.570129 167.722656 L 257.979736 167.722656 L 257.979736 236.415985 Z"/>
</svg>
